<svg width="256" height="256" viewBox="0 0 256 256" fill="none" xmlns="http://www.w3.org/2000/svg">
<path d="M250.984 115.892L140.108 5.016C138.518 3.42592 136.63 2.1646 134.553 1.30405C132.475 0.443499 130.249 0.000579834 128 0.000579834C125.751 0.000579834 123.525 0.443499 121.447 1.30405C119.37 2.1646 117.482 3.42592 115.892 5.016L5.016 115.892C3.42577 117.482 2.16432 119.37 1.30368 121.447C0.443046 123.525 8.01086e-05 125.752 8.01086e-05 128.001C8.01086e-05 130.249 0.443046 132.476 1.30368 134.554C2.16432 136.631 3.42577 138.519 5.016 140.109L115.892 250.985C117.482 252.575 119.37 253.836 121.447 254.697C123.525 255.558 125.751 256 128 256C130.249 256 132.475 255.558 134.553 254.697C136.63 253.836 138.518 252.575 140.108 250.985L250.984 140.109C254.195 136.897 255.999 132.542 255.999 128.001C255.999 123.459 254.195 119.104 250.984 115.892ZM180.967 136.5L116.218 181.844C114.901 182.767 113.356 183.31 111.751 183.415C110.146 183.521 108.543 183.184 107.116 182.441C105.69 181.699 104.494 180.579 103.66 179.204C102.825 177.83 102.384 176.252 102.384 174.644V83.956C102.384 82.3478 102.825 80.7704 103.66 79.3955C104.494 78.0207 105.69 76.9011 107.116 76.1586C108.543 75.4161 110.146 75.0792 111.751 75.1846C113.356 75.2899 114.901 75.8334 116.218 76.756L180.967 122.1C182.124 122.911 183.069 123.988 183.721 125.242C184.373 126.495 184.714 127.887 184.714 129.3C184.714 130.713 184.373 132.105 183.721 133.358C183.069 134.612 182.124 135.689 180.967 136.5Z" fill="black"/>
</svg>
