<?xml version="1.0" standalone="no"?>
<!DOCTYPE svg PUBLIC "-//W3C//DTD SVG 20010904//EN"
 "http://www.w3.org/TR/2001/REC-SVG-20010904/DTD/svg10.dtd">
<svg version="1.0" xmlns="http://www.w3.org/2000/svg"
 width="512.000000pt" height="512.000000pt" viewBox="0 0 512.000000 512.000000"
 preserveAspectRatio="xMidYMid meet">

<g transform="translate(0.000000,512.000000) scale(0.100000,-0.100000)"
fill="#000000" stroke="none">
<path d="M1395 4604 c-232 -28 -294 -43 -400 -97 -99 -49 -167 -101 -248 -187
-62 -65 -88 -104 -133 -193 -108 -219 -114 -306 -114 -1657 0 -973 4 -1125 36
-1279 65 -318 317 -575 636 -651 156 -37 273 -40 1388 -40 1115 0 1232 3 1388
40 319 76 571 333 636 651 32 154 36 306 36 1279 0 1351 -6 1438 -114 1657
-45 89 -71 128 -133 193 -140 149 -278 224 -493 266 -77 16 -200 18 -1270 19
-652 2 -1198 1 -1215 -1z m1278 -1453 c414 -213 798 -411 854 -440 119 -61
149 -96 140 -160 -9 -67 -30 -86 -181 -162 -77 -40 -464 -238 -858 -440 -754
-388 -753 -388 -817 -354 -63 32 -61 -8 -61 979 l0 895 35 35 c36 37 63 46
108 39 16 -3 367 -179 780 -392z"/>
</g>
</svg>
