<svg width="256" height="256" viewBox="0 0 256 256" fill="none" xmlns="http://www.w3.org/2000/svg">
<path d="M224.082 118.54L137.46 31.9183C136.218 30.6761 134.743 29.6906 133.12 29.0183C131.496 28.346 129.757 28 128 28C126.243 28 124.504 28.346 122.881 29.0183C121.258 29.6906 119.783 30.6761 118.541 31.9183L31.9187 118.54C30.6763 119.783 29.6908 121.258 29.0184 122.88C28.3461 124.504 28 126.244 28 128.001C28 129.757 28.3461 131.497 29.0184 133.12C29.6908 134.743 30.6763 136.218 31.9187 137.46L118.541 224.082C119.783 225.324 121.258 226.309 122.881 226.982C124.504 227.655 126.243 228 128 228C129.757 228 131.496 227.655 133.12 226.982C134.743 226.309 136.218 225.324 137.46 224.082L224.082 137.46C226.591 134.951 228 131.548 228 128.001C228 124.452 226.591 121.05 224.082 118.54ZM169.381 134.64L118.796 170.065C117.767 170.787 116.56 171.211 115.306 171.293C114.052 171.376 112.8 171.112 111.685 170.532C110.571 169.952 109.636 169.077 108.985 168.003C108.332 166.93 107.988 165.697 107.988 164.44V93.5903C107.988 92.3339 108.332 91.1016 108.985 90.0274C109.636 88.9534 110.571 88.0787 111.685 87.4986C112.8 86.9185 114.052 86.6553 115.306 86.7377C116.56 86.8199 117.767 87.2445 118.796 87.9653L169.381 123.39C170.285 124.024 171.023 124.865 171.533 125.845C172.042 126.824 172.308 127.911 172.308 129.015C172.308 130.119 172.042 131.207 171.533 132.186C171.023 133.165 170.285 134.007 169.381 134.64Z" fill="black"/>
</svg>
